<svg version="1.2" xmlns="http://www.w3.org/2000/svg" viewBox="0 0 256 256" width="256" height="256">
	<title>spotify-svg</title>
	<style>
		.s0 { fill: #5ebb52 } 
	</style>
	<g id="Layer">
		<g id="Layer">
			<path id="Layer" fill-rule="evenodd" class="s0" d="m128 221c-51.4 0-93-41.6-93-93 0-51.5 41.6-93 93-93 51.5 0 93 41.5 93 93 0 51.4-41.5 93-93 93zm37.7-59.7c-14-9.3-33.6-13.1-47.8-13.1-17 0-29.7 4.2-30.2 4.4-3.2 1-4.9 4.5-3.8 7.6 1 3.2 4.5 4.9 7.6 3.9 0.1-0.1 11.4-3.8 26.4-3.8 14.2 0 31.1 4.5 41.1 11.1 1 0.7 2.2 1.1 3.4 1.1 1.9 0 3.8-1 5-2.7 1.9-2.8 1.1-6.6-1.7-8.5zm11.6-25.9c-20.9-13-43.4-15.6-61.4-15.5-19.8 0.2-34.3 3.7-35.4 4.1-3.7 1-5.8 4.8-4.8 8.5 1.1 3.7 4.9 5.8 8.6 4.8 0.2-0.1 14.7-3.5 32.8-3.7 16.1-0.1 34.7 2.3 52.8 13.6 1.2 0.7 2.5 1 3.7 1 2.3 0 4.6-1.2 5.9-3.3 2-3.2 1-7.5-2.2-9.5zm11.4-30.5c-24.3-14.3-53-17.3-72.8-17.3q-0.1 0-0.3 0c-23.5 0-41.2 4.1-42 4.2-4.3 1-7 5.4-6 9.7 1 4.4 5.3 7.1 9.7 6.1 0.2-0.1 16.8-3.9 38.3-3.9q0.1 0 0.3 0c17.8 0.1 43.5 2.7 64.6 15.1 1.3 0.7 2.7 1.1 4.1 1.1 2.8 0 5.5-1.4 7-4 2.2-3.8 0.9-8.8-2.9-11z"/>
		</g>
	</g>
</svg>